<svg xmlns="http://www.w3.org/2000/svg" aria-hidden="true" overflow="hidden" style="position:absolute;width:0;height:0">
  <defs>
    <symbol id="icon-menu" viewBox="0 0 32 32">
      <path d="M4 24v-2.667h24v2.667h-24zM4 17.333v-2.667h24v2.667h-24zM4 10.667v-2.667h24v2.667h-24z"/>
    </symbol>
    <symbol id="icon-close" viewBox="0 0 32 32">
      <path d="M8.533 25.333l-1.867-1.867 7.467-7.467-7.467-7.467 1.867-1.867 7.467 7.467 7.467-7.467 1.867 1.867-7.467 7.467 7.467 7.467-1.867 1.867-7.467-7.467-7.467 7.467z"/>
    </symbol>
    <symbol id="icon-facebook" viewBox="0 0 32 32">
      <path d="M16 2.667C8.636 2.667 2.667 8.636 2.667 16c0 6.655 4.876 12.171 11.251 13.172v-9.319h-3.387V16h3.387v-2.937c0-3.341 1.989-5.187 5.036-5.187 1.459 0 2.984.26 2.984.26v3.28h-1.68c-1.657 0-2.173 1.028-2.173 2.083V16h3.697l-.591 3.853h-3.107v9.319c6.373-1 11.249-6.519 11.249-13.172 0-7.364-5.969-13.333-13.333-13.333z"/>
    </symbol>
    <symbol id="icon-carousel-arrow" viewBox="0 0 32 32">
      <path d="M16 18v14L0 16 16 0v14h16v4H16z"/>
    </symbol>
    <symbol id="icon-big-quotes" viewBox="0 0 44 32">
      <path d="M10.911 31.711c-1.817 0-3.406-.341-4.769-1.022-1.363-.757-2.46-1.741-3.293-2.952-.757-1.211-1.363-2.649-1.817-4.315s-.681-3.406-.681-5.223c0-3.709.946-7.191 2.839-10.446C5.158 4.498 8.186 1.924 12.274.032l1.022 2.044c-2.12.984-4.012 2.422-5.677 4.315-1.59 1.817-2.536 3.747-2.839 5.791-.454 1.59-.492 3.142-.114 4.655 1.665-1.817 3.898-2.725 6.699-2.725 2.574 0 4.693.795 6.359 2.385 1.665 1.514 2.498 3.634 2.498 6.359 0 2.649-.871 4.807-2.612 6.472-1.741 1.59-3.974 2.385-6.699 2.385zm23.391 0c-1.817 0-3.406-.341-4.769-1.022-1.363-.757-2.46-1.741-3.293-2.952-.757-1.211-1.363-2.649-1.817-4.315s-.681-3.406-.681-5.223c0-3.709.946-7.191 2.839-10.446 1.968-3.255 4.996-5.829 9.084-7.721l1.022 2.044c-2.12.984-4.012 2.422-5.677 4.315-1.59 1.817-2.536 3.747-2.839 5.791-.454 1.59-.492 3.142-.114 4.655 1.665-1.817 3.898-2.725 6.699-2.725 2.574 0 4.693.795 6.359 2.385 1.665 1.514 2.498 3.634 2.498 6.359 0 2.649-.871 4.807-2.612 6.472-1.741 1.59-3.974 2.385-6.699 2.385z"/>
    </symbol>
    <symbol id="icon-instagram" viewBox="0 0 32 32">
      <path d="M16 2.667c3.623 0 4.075.013 5.496.08 1.42.067 2.387.289 3.237.62a6.51 6.51 0 0 1 2.363 1.537 6.538 6.538 0 0 1 1.537 2.363c.329.849.553 1.817.62 3.237.063 1.421.08 1.873.08 5.496s-.013 4.075-.08 5.496c-.067 1.42-.291 2.387-.62 3.237a6.53 6.53 0 0 1-1.537 2.363 6.55 6.55 0 0 1-2.363 1.537c-.849.329-1.817.553-3.237.62-1.421.063-1.873.08-5.496.08s-4.075-.013-5.496-.08c-1.42-.067-2.387-.291-3.237-.62a6.53 6.53 0 0 1-2.363-1.537 6.53 6.53 0 0 1-1.537-2.363c-.331-.849-.553-1.817-.62-3.237-.063-1.421-.08-1.873-.08-5.496s.013-4.075.08-5.496c.067-1.421.289-2.387.62-3.237a6.516 6.516 0 0 1 1.537-2.363 6.53 6.53 0 0 1 2.363-1.537c.851-.331 1.816-.553 3.237-.62 1.421-.063 1.873-.08 5.496-.08zm0 6.666a6.67 6.67 0 0 0-4.714 11.381 6.67 6.67 0 0 0 9.428 0A6.668 6.668 0 0 0 16 9.333zM24.667 9a1.667 1.667 0 1 0-3.334 0 1.667 1.667 0 0 0 3.334 0zM16 12a4.003 4.003 0 0 1 4 4 4.003 4.003 0 0 1-4 4 4.003 4.003 0 0 1-4-4 4.003 4.003 0 0 1 4-4z"/>
    </symbol>
    <symbol id="icon-logo" viewBox="0 0 150 32">
      <path d="M10.219 26.815c-.712-1.762-1.213-3.45-1.5-5.062s-.431-3.137-.431-4.575v-.637c0-.212.012-.425.037-.637-.825-.1-1.456-.269-1.894-.506-.425-.25-.638-.556-.638-.919s.25-.662.75-.9c.513-.238 1.212-.406 2.1-.506.2-1.225.463-2.331.787-3.319s.637-1.825.938-2.513c.312-.7.581-1.238.806-1.613.225-.388.338-.594.338-.619l.694.225c-.05.15-.144.425-.281.825-.125.388-.275.906-.45 1.556a42.262 42.262 0 0 0-.506 2.306c-.175.887-.325 1.9-.45 3.037h.037c.95 0 1.887.05 2.813.15.925.087 1.819.238 2.681.45a11.556 11.556 0 0 0 1.65-1.106 8.196 8.196 0 0 0 1.331-1.387 6.247 6.247 0 0 0 .9-1.65c.225-.6.337-1.238.337-1.913 0-.938-.163-1.75-.487-2.438s-.744-1.275-1.256-1.763c-.5-.5-1.069-.906-1.706-1.219s-1.269-.556-1.894-.731A10.827 10.827 0 0 0 13.2.995a9.86 9.86 0 0 0-1.294-.113c-1.213 0-2.319.113-3.319.338-1 .212-1.9.488-2.7.825-.787.325-1.475.681-2.063 1.069-.587.375-1.075.731-1.462 1.069-.387.325-.681.6-.881.825l-.3.338-.563-.469c.025-.037.144-.181.356-.431.225-.25.544-.544.956-.881.425-.35.944-.725 1.556-1.125s1.325-.762 2.138-1.087A16.642 16.642 0 0 1 8.343.509C9.355.284 10.468.171 11.681.171c.812 0 1.644.056 2.494.169.863.1 1.694.269 2.494.506.813.238 1.581.544 2.306.919s1.356.831 1.894 1.369c.537.538.962 1.162 1.275 1.875s.469 1.519.469 2.419c0 .6-.119 1.2-.356 1.8s-.575 1.188-1.013 1.762c-.437.575-.962 1.119-1.575 1.631s-1.294.981-2.044 1.406c.837.3 1.612.669 2.325 1.106a7.53 7.53 0 0 1 1.837 1.519c.512.575.913 1.231 1.2 1.969s.431 1.563.431 2.475c0 .975-.175 1.9-.525 2.775s-.844 1.681-1.481 2.419c-.625.738-1.375 1.4-2.25 1.988-.875.6-1.837 1.106-2.888 1.519s-2.175.725-3.375.938a19.701 19.701 0 0 1-3.675.337c-1.588 0-2.963-.188-4.125-.563-1.15-.362-2.106-.85-2.869-1.462-.75-.612-1.313-1.313-1.688-2.1a5.944 5.944 0 0 1-.544-2.475c0-.55.081-1.069.244-1.556.175-.5.412-.956.713-1.369a4.984 4.984 0 0 1 1.125-1.106 5.39 5.39 0 0 1 1.481-.769l.244.581a3.036 3.036 0 0 0-1.2.788c-.313.35-.569.731-.769 1.144a5.86 5.86 0 0 0-.412 1.256 6.496 6.496 0 0 0-.113 1.106c0 .375.05.781.15 1.219s.269.869.506 1.294c.237.425.55.837.938 1.237.4.4.894.75 1.481 1.05s1.281.537 2.081.712c.8.188 1.719.281 2.756.281.8 0 1.656-.087 2.569-.262a15.069 15.069 0 0 0 5.25-2.006c.812-.5 1.531-1.087 2.156-1.762a7.97 7.97 0 0 0 1.481-2.269c.375-.838.563-1.756.563-2.756 0-.9-.125-1.7-.375-2.4s-.6-1.319-1.05-1.856a6.424 6.424 0 0 0-1.538-1.369 10.107 10.107 0 0 0-1.894-.975c-.925.4-1.9.719-2.925.956a14.567 14.567 0 0 1-3.169.338c-.025.437-.044.894-.056 1.369-.012.462-.019.944-.019 1.444 0 1.2.063 2.456.188 3.769s.306 2.694.544 4.144l-.731.113zm.112-11.607a12.624 12.624 0 0 0 2.138-.281 13.39 13.39 0 0 0 2.306-.75c-.712-.175-1.431-.3-2.156-.375-.712-.088-1.4-.131-2.063-.131h-.113c-.025.25-.044.506-.056.769-.012.25-.031.506-.056.769zm-3.768-.693c0 .088.138.194.412.319s.737.225 1.388.3l.075-.675c.025-.225.056-.444.094-.656-.713.1-1.219.225-1.519.375s-.45.263-.45.338zm24.618 12.956c-.637 0-1.25-.113-1.837-.338s-1.106-.563-1.556-1.012c-.438-.462-.788-1.038-1.05-1.725s-.394-1.494-.394-2.419c0-1.125.163-2.125.487-3 .325-.887.738-1.631 1.238-2.231.512-.612 1.081-1.075 1.706-1.387.625-.325 1.237-.488 1.837-.488.775 0 1.387.256 1.838.769.462.512.694 1.175.694 1.988 0 .7-.131 1.337-.394 1.912a4.734 4.734 0 0 1-1.05 1.463 4.67 4.67 0 0 1-1.481.937 4.512 4.512 0 0 1-1.725.337c-.288 0-.563-.012-.825-.037-.25-.037-.475-.075-.675-.113.075.775.225 1.444.45 2.006s.506 1.025.844 1.388c.338.362.713.631 1.125.806.425.175.863.262 1.313.262.563 0 1.081-.138 1.556-.413s.913-.631 1.313-1.069c.4-.45.762-.962 1.087-1.538.337-.575.637-1.156.9-1.744.262-.6.494-1.181.694-1.744.212-.575.4-1.081.563-1.519l.731.188c-.163.413-.356.913-.581 1.5a28.258 28.258 0 0 1-.75 1.856 19.41 19.41 0 0 1-1.012 1.931 10.155 10.155 0 0 1-1.313 1.725c-.487.5-1.044.913-1.669 1.238-.612.312-1.3.469-2.063.469zm.469-11.869c-.462 0-.919.15-1.369.45-.437.288-.831.688-1.181 1.2s-.637 1.119-.863 1.819c-.212.7-.319 1.45-.319 2.25.163.063.388.119.675.169.3.038.662.056 1.087.056.45 0 .894-.094 1.331-.281.45-.2.85-.469 1.2-.806.363-.35.65-.762.862-1.237.225-.475.337-.994.337-1.556 0-.275-.037-.537-.112-.788s-.187-.469-.337-.656a1.653 1.653 0 0 0-.563-.45 1.572 1.572 0 0 0-.75-.169zm20.625 3.15a54.003 54.003 0 0 1-1.406 3.488c-.413.938-.819 1.694-1.219 2.269-.388.575-.775.988-1.163 1.238s-.812.375-1.275.375a2.002 2.002 0 0 1-1.444-.581c-.4-.4-.65-1.012-.75-1.837-.4.862-.919 1.569-1.556 2.119-.637.538-1.437.806-2.4.806a4.005 4.005 0 0 1-1.481-.281 3.456 3.456 0 0 1-1.237-.863c-.363-.4-.656-.9-.881-1.5-.212-.6-.319-1.306-.319-2.119 0-.825.1-1.6.3-2.325a9.447 9.447 0 0 1 .825-1.988 8.295 8.295 0 0 1 1.163-1.631c.45-.475.913-.875 1.388-1.2s.95-.575 1.425-.75c.475-.175.913-.263 1.313-.263.35 0 .688.044 1.012.131s.612.231.862.431a1.9 1.9 0 0 1 .619.769c.163.325.244.731.244 1.219 0 .575-.112 1.075-.337 1.5a3.661 3.661 0 0 1-.788 1.069 4.31 4.31 0 0 1-.938.694c-.313.175-.563.3-.75.375l-.225-.731c.037 0 .175-.05.413-.15.25-.1.506-.263.769-.488.275-.238.525-.537.75-.9s.337-.806.337-1.331c0-.6-.169-1.056-.506-1.369-.337-.325-.769-.487-1.294-.487-.4 0-.869.144-1.406.431s-1.056.738-1.556 1.35c-.488.613-.906 1.388-1.256 2.325-.337.937-.506 2.056-.506 3.356 0 1.288.225 2.269.675 2.944.462.675 1.081 1.012 1.856 1.012.388 0 .756-.106 1.106-.319.363-.225.694-.519.994-.881s.569-.781.806-1.256c.237-.488.444-.988.619-1.5 0-.4.044-.869.131-1.406.1-.55.25-1.106.45-1.669l1.144.375c-.063.163-.125.375-.187.637s-.125.55-.188.863c-.05.313-.094.637-.131.975a8.456 8.456 0 0 0-.056.956c0 .975.094 1.65.281 2.025.2.362.538.544 1.013.544.275 0 .544-.1.806-.3.275-.2.569-.55.881-1.05s.656-1.175 1.031-2.025c.375-.863.813-1.95 1.313-3.262l.731.188zm-.712-.187c.187-.487.388-.95.6-1.387.225-.45.462-.844.713-1.181s.519-.606.806-.806c.3-.213.631-.319.994-.319.175 0 .375.037.6.113s.437.225.638.45c.212.225.388.55.525.975s.206.988.206 1.688c0 .362-.019.762-.056 1.2l-.112 1.294c.388-.825.769-1.519 1.144-2.081.388-.575.762-1.031 1.125-1.369.375-.35.744-.6 1.106-.75a2.63 2.63 0 0 1 1.087-.244c.163 0 .35.037.563.113.225.075.431.206.619.394.2.188.363.444.487.769.138.325.206.744.206 1.256 0 .413-.031.825-.094 1.238s-.131.813-.206 1.2-.144.756-.206 1.106a4.962 4.962 0 0 0-.094.9c0 .625.112 1.106.337 1.444.225.325.569.488 1.031.488.375 0 .731-.138 1.069-.413.338-.288.65-.65.937-1.087.3-.437.569-.919.806-1.444a17.9 17.9 0 0 0 .638-1.5c.188-.488.344-.913.469-1.275.125-.375.212-.631.262-.769l.731.188c-.175.438-.362.925-.563 1.463a23.63 23.63 0 0 1-1.407 3.169c-.275.5-.581.944-.919 1.331s-.706.7-1.106.937a2.424 2.424 0 0 1-1.294.356c-.4 0-.75-.075-1.05-.225-.288-.163-.531-.375-.731-.637s-.35-.575-.45-.937c-.1-.363-.15-.75-.15-1.163 0-.462.037-.938.112-1.425.087-.487.175-.956.262-1.406.1-.45.188-.863.262-1.238.088-.387.131-.706.131-.956 0-.387-.075-.675-.225-.863a.73.73 0 0 0-.619-.3c-.363 0-.719.131-1.069.394a5.404 5.404 0 0 0-.994 1.05c-.313.437-.612.938-.9 1.5s-.556 1.144-.806 1.744a53.815 53.815 0 0 0-.675 1.762c-.2.588-.375 1.119-.525 1.594s-.281.881-.394 1.219c-.1.325-.169.531-.206.619l-1.087-.187c.15-.738.288-1.513.413-2.325.125-.825.231-1.631.319-2.419.1-.8.175-1.563.225-2.288.063-.725.094-1.369.094-1.931 0-.763-.05-1.275-.15-1.538-.1-.275-.281-.412-.544-.412-.225 0-.437.087-.638.262-.2.163-.388.387-.563.675-.163.275-.325.6-.487.975s-.319.775-.469 1.2l-.731-.188zM80.006 8.271c0 .7.144 1.331.431 1.894a5.8 5.8 0 0 0 1.163 1.519c.488.45 1.056.869 1.706 1.256.663.375 1.362.744 2.101 1.106.737.35 1.493.7 2.268 1.05.787.338 1.55.7 2.288 1.087.737.375 1.431.788 2.081 1.237a8.687 8.687 0 0 1 1.724 1.481 6.444 6.444 0 0 1 1.163 1.819c.287.662.432 1.412.432 2.25 0 1.525-.288 2.85-.863 3.975a7.989 7.989 0 0 1-2.307 2.756c-.962.738-2.081 1.281-3.356 1.631a14.514 14.514 0 0 1-3.994.544c-1.225 0-2.382-.163-3.469-.487-1.088-.313-2.044-.756-2.869-1.331a6.654 6.654 0 0 1-1.968-2.044 4.919 4.919 0 0 1-.713-2.588c0-.825.125-1.525.375-2.1.262-.588.544-1.069.844-1.444.312-.375.606-.65.881-.825s.431-.269.469-.281l.412.881a6.411 6.411 0 0 0-.356.244c-.213.138-.444.356-.693.656a5.51 5.51 0 0 0-.675 1.162c-.201.462-.3 1.031-.3 1.706s.124 1.281.375 1.819c.262.525.607.987 1.031 1.387.437.4.932.744 1.481 1.031a9.918 9.918 0 0 0 1.744.694c.6.188 1.2.319 1.801.394.599.088 1.156.131 1.668.131 1.326 0 2.525-.169 3.6-.506 1.075-.325 1.988-.781 2.737-1.369.763-.575 1.35-1.244 1.763-2.006a5.234 5.234 0 0 0 .619-2.494c0-1-.213-1.862-.637-2.587s-.988-1.363-1.688-1.913c-.7-.563-1.5-1.062-2.4-1.5a71 71 0 0 0-2.737-1.313 69.894 69.894 0 0 1-2.738-1.331c-.887-.475-1.681-1.019-2.381-1.631s-1.263-1.319-1.687-2.119c-.425-.812-.638-1.775-.638-2.887 0-1.237.206-2.369.619-3.394a8.215 8.215 0 0 1 1.725-2.644 7.572 7.572 0 0 1 2.588-1.725c.987-.413 2.056-.619 3.206-.619 1.163 0 2.182.138 3.056.412.875.262 1.606.637 2.194 1.125.6.475 1.044 1.05 1.331 1.725.3.675.45 1.419.45 2.231 0 .662-.081 1.312-.244 1.95-.15.625-.319 1.188-.506 1.688s-.362.906-.525 1.219c-.162.313-.25.488-.262.525l-.843-.469c0-.012.068-.162.206-.45.149-.287.312-.662.487-1.125s.331-.981.469-1.556c.15-.587.225-1.181.225-1.781 0-.675-.125-1.288-.375-1.837-.237-.563-.606-1.038-1.106-1.425s-1.131-.688-1.894-.9c-.763-.212-1.663-.319-2.7-.319-.963 0-1.857.163-2.682.487a6.453 6.453 0 0 0-2.156 1.331 6.392 6.392 0 0 0-1.425 2.044c-.35.775-.525 1.625-.525 2.55zm23.344 9.712c0-.75.175-1.4.525-1.95a8.554 8.554 0 0 1 1.387-1.594 1.854 1.854 0 0 0-.563-.244 1.925 1.925 0 0 0-.581-.094c-.412 0-.856.106-1.331.319-.462.2-.894.544-1.293 1.031-.388.487-.713 1.144-.976 1.969-.262.813-.393 1.831-.393 3.056 0 1.012.119 1.881.356 2.606.25.725.587 1.325 1.013 1.8a4.03 4.03 0 0 0 1.481 1.031 5.062 5.062 0 0 0 1.8.319c.762 0 1.444-.194 2.044-.581.6-.4 1.15-.944 1.65-1.631.5-.7.963-1.513 1.387-2.437.438-.938.869-1.944 1.294-3.019l.713.188c-.25.612-.513 1.244-.788 1.894-.262.65-.556 1.294-.881 1.931a14.767 14.767 0 0 1-1.05 1.781 7.085 7.085 0 0 1-1.312 1.481c-.488.425-1.037.763-1.65 1.012s-1.3.375-2.062.375a6.521 6.521 0 0 1-2.212-.375 5.26 5.26 0 0 1-1.819-1.162c-.525-.525-.944-1.181-1.257-1.969s-.469-1.712-.469-2.775c0-1.075.175-2.075.525-3 .362-.925.819-1.725 1.368-2.4s1.156-1.206 1.819-1.594 1.293-.581 1.894-.581c.7 0 1.325.181 1.875.544.1-.075.193-.15.281-.225.1-.088.201-.181.3-.281l.412.581c-.075.075-.15.144-.225.206s-.15.131-.225.206c.225.275.407.6.544.975.15.375.225.794.225 1.256 0 .512-.062.969-.187 1.369a2.932 2.932 0 0 1-.488.994c-.2.275-.431.481-.693.619s-.538.206-.825.206c-.15 0-.319-.031-.506-.094a1.88 1.88 0 0 1-.525-.319c-.162-.15-.3-.337-.412-.563a2.012 2.012 0 0 1-.169-.863zm3.037-1.35c0-.362-.056-.688-.169-.975a2.425 2.425 0 0 0-.412-.75c-.462.4-.863.85-1.2 1.35-.325.487-.488 1.062-.488 1.725 0 .35.087.625.262.825a.818.818 0 0 0 .619.281c.275 0 .5-.087.675-.262.188-.175.331-.387.432-.637.1-.262.169-.531.206-.806.05-.288.075-.537.075-.75zm8.869 10.838c-.637 0-1.25-.113-1.838-.338s-1.106-.563-1.556-1.012c-.438-.462-.788-1.038-1.05-1.725s-.394-1.494-.394-2.419c0-1.125.163-2.125.488-3 .325-.887.737-1.631 1.237-2.231.513-.612 1.082-1.075 1.707-1.387.624-.325 1.237-.488 1.838-.488.774 0 1.387.256 1.838.769.462.512.693 1.175.693 1.988 0 .7-.131 1.337-.394 1.912a4.734 4.734 0 0 1-1.05 1.463 4.67 4.67 0 0 1-1.481.937 4.512 4.512 0 0 1-1.725.337c-.287 0-.563-.012-.825-.037-.25-.037-.475-.075-.675-.113.075.775.225 1.444.449 2.006s.506 1.025.844 1.388c.338.362.713.631 1.125.806.425.175.863.262 1.313.262.563 0 1.081-.138 1.556-.413s.912-.631 1.313-1.069c.4-.45.762-.962 1.087-1.538a17.48 17.48 0 0 0 .9-1.744c.262-.6.493-1.181.693-1.744l.563-1.519.732.188c-.163.413-.356.913-.582 1.5a28.788 28.788 0 0 1-.749 1.856 19.216 19.216 0 0 1-1.013 1.931 10.155 10.155 0 0 1-1.313 1.725c-.487.5-1.044.913-1.669 1.238-.612.312-1.3.469-2.062.469zm.469-11.869c-.462 0-.919.15-1.369.45-.437.288-.831.688-1.181 1.2s-.637 1.119-.863 1.819c-.212.7-.319 1.45-.319 2.25.163.063.388.119.675.169.3.038.663.056 1.088.056.45 0 .894-.094 1.331-.281.45-.2.85-.469 1.2-.806.363-.35.65-.762.863-1.237a3.59 3.59 0 0 0 .338-1.556c0-.275-.038-.537-.112-.788s-.188-.469-.338-.656a1.662 1.662 0 0 0-.563-.45 1.575 1.575 0 0 0-.75-.169zm6.187 2.963c.188-.487.388-.95.6-1.387.225-.45.463-.844.713-1.181s.519-.606.806-.806c.3-.213.631-.319.993-.319.175 0 .375.037.6.113s.437.225.638.45c.212.225.388.55.525.975s.206.988.206 1.688c0 .362-.019.762-.056 1.2l-.112 1.294c.388-.825.769-1.519 1.143-2.081.388-.575.762-1.031 1.125-1.369.375-.35.744-.6 1.107-.75a2.633 2.633 0 0 1 1.087-.244c.163 0 .35.037.563.113.225.075.432.206.619.394.2.188.363.444.488.769.137.325.206.744.206 1.256 0 .413-.031.825-.094 1.238s-.132.813-.206 1.2c-.075.387-.144.756-.206 1.106a4.962 4.962 0 0 0-.094.9c0 .625.112 1.106.338 1.444.225.325.568.488 1.031.488.375 0 .731-.138 1.069-.413.337-.288.65-.65.937-1.087.3-.437.569-.919.806-1.444.25-.525.462-1.025.637-1.5.188-.488.344-.913.469-1.275.124-.375.212-.631.262-.769l.731.188c-.175.438-.363.925-.563 1.463-.188.525-.4 1.056-.637 1.594s-.494 1.062-.769 1.575c-.274.5-.581.944-.919 1.331s-.706.7-1.106.937a2.424 2.424 0 0 1-1.294.356c-.4 0-.75-.075-1.05-.225-.287-.163-.531-.375-.731-.637s-.351-.575-.45-.937c-.1-.363-.15-.75-.15-1.163 0-.462.038-.938.112-1.425.087-.487.175-.956.262-1.406.1-.45.188-.863.262-1.238.087-.387.132-.706.132-.956 0-.387-.075-.675-.225-.863a.73.73 0 0 0-.619-.3c-.362 0-.718.131-1.069.394a5.431 5.431 0 0 0-.993 1.05c-.312.437-.612.938-.9 1.5s-.556 1.144-.806 1.744a53.847 53.847 0 0 0-.676 1.762c-.2.588-.375 1.119-.525 1.594s-.281.881-.394 1.219c-.1.325-.169.531-.206.619l-1.087-.187c.15-.738.287-1.513.412-2.325.125-.825.231-1.631.319-2.419.1-.8.175-1.563.225-2.288.063-.725.094-1.369.094-1.931 0-.763-.05-1.275-.15-1.538-.1-.275-.282-.412-.544-.412-.225 0-.437.087-.637.262a2.582 2.582 0 0 0-.563.675c-.162.275-.325.6-.487.975s-.319.775-.469 1.2l-.732-.188zm20.307 8.906c-.637 0-1.25-.113-1.838-.338s-1.107-.563-1.556-1.012c-.438-.462-.788-1.038-1.05-1.725s-.394-1.494-.394-2.419c0-1.125.163-2.125.488-3 .325-.887.737-1.631 1.237-2.231.513-.612 1.082-1.075 1.707-1.387.624-.325 1.237-.488 1.838-.488.774 0 1.387.256 1.838.769.462.512.693 1.175.693 1.988 0 .7-.131 1.337-.394 1.912a4.734 4.734 0 0 1-1.05 1.463 4.67 4.67 0 0 1-1.481.937 4.512 4.512 0 0 1-1.725.337c-.287 0-.563-.012-.825-.037-.25-.037-.475-.075-.675-.113.075.775.225 1.444.45 2.006s.506 1.025.843 1.388c.338.362.713.631 1.125.806.425.175.863.262 1.313.262.563 0 1.081-.138 1.556-.413s.912-.631 1.313-1.069c.4-.45.762-.962 1.087-1.538a17.48 17.48 0 0 0 .9-1.744c.262-.6.494-1.181.693-1.744l.563-1.519.732.188c-.163.413-.356.913-.582 1.5a28.258 28.258 0 0 1-.75 1.856 19.216 19.216 0 0 1-1.013 1.931 10.155 10.155 0 0 1-1.313 1.725c-.487.5-1.044.913-1.668 1.238-.613.312-1.301.469-2.063.469zm.468-11.869c-.462 0-.919.15-1.369.45-.437.288-.831.688-1.181 1.2s-.637 1.119-.863 1.819c-.212.7-.319 1.45-.319 2.25.163.063.388.119.675.169.3.038.663.056 1.088.056.45 0 .894-.094 1.331-.281.45-.2.85-.469 1.2-.806.363-.35.65-.762.863-1.237a3.59 3.59 0 0 0 .338-1.556c0-.275-.038-.537-.112-.788s-.188-.469-.338-.656a1.662 1.662 0 0 0-.563-.45 1.575 1.575 0 0 0-.75-.169z"/>
    </symbol>
    <symbol id="icon-twitter" viewBox="0 0 32 32">
      <path d="M29.549 7.541c-1.018.45-2.097.746-3.203.877a5.593 5.593 0 0 0 2.453-3.085 11.118 11.118 0 0 1-3.541 1.353 5.576 5.576 0 0 0-9.501 5.085A15.826 15.826 0 0 1 4.264 5.944a5.557 5.557 0 0 0-.755 2.804c0 1.933.984 3.641 2.48 4.641a5.562 5.562 0 0 1-2.525-.697v.069a5.58 5.58 0 0 0 4.473 5.468 5.603 5.603 0 0 1-2.52.096 5.58 5.58 0 0 0 5.209 3.873 11.181 11.181 0 0 1-8.254 2.309 15.783 15.783 0 0 0 8.547 2.507c10.257 0 15.867-8.497 15.867-15.867 0-.24-.007-.483-.017-.72a11.334 11.334 0 0 0 2.783-2.887l-.001-.001z"/>
    </symbol>
    <symbol id="icon-youtube" viewBox="0 0 32 32">
      <path d="M28.724 8.664c.609 2.376.609 7.336.609 7.336s0 4.96-.609 7.336c-.339 1.313-1.329 2.347-2.584 2.696-2.279.635-10.14.635-10.14.635s-7.857 0-10.14-.635c-1.26-.355-2.249-1.387-2.584-2.696C2.667 20.96 2.667 16 2.667 16s0-4.96.609-7.336c.339-1.313 1.329-2.347 2.584-2.696C8.143 5.333 16 5.333 16 5.333s7.861 0 10.14.635c1.26.355 2.249 1.387 2.584 2.696zM13.333 20.667l8-4.667-8-4.667v9.333z"/>
    </symbol>
  </defs>
</svg>
